<?xml version="1.0" encoding="UTF-8"?>
<svg version="1.1" xmlns="http://www.w3.org/2000/svg" width="219" height="298">
<path d="M0 0 C4.35099329 3.31053837 8.18593401 7.09485184 12 11 C12.67804688 11.65742188 13.35609375 12.31484375 14.0546875 12.9921875 C27.11566677 26.51755715 30.17573474 44.94971837 30.09765625 62.93359375 C30.09553383 64.78320457 30.09553383 64.78320457 30.09336853 66.67018127 C30.08778941 70.59264595 30.07524068 74.51505269 30.0625 78.4375 C30.05691698 81.10351479 30.05291987 83.76952904 30.04882812 86.43554688 C30.03782681 92.95705088 30.02110945 99.4785213 30 106 C30.94319092 105.98259766 31.88638184 105.96519531 32.8581543 105.94726562 C34.10508057 105.93373047 35.35200684 105.92019531 36.63671875 105.90625 C37.86865967 105.88884766 39.10060059 105.87144531 40.36987305 105.85351562 C49.21786472 106.21055342 55.80761736 109.79004098 62.12109375 115.84375 C67.12348388 121.58453867 69.11651066 127.78834506 69.14044189 135.3177948 C69.14615204 136.39571289 69.15186218 137.47363098 69.15774536 138.58421326 C69.15942215 140.3508004 69.15942215 140.3508004 69.16113281 142.15307617 C69.16609772 143.39741425 69.17106262 144.64175232 69.17617798 145.92379761 C69.18827744 149.33522896 69.19574269 152.74659907 69.20018864 156.15804458 C69.20312396 158.29221277 69.2072297 160.42637565 69.21169281 162.56054115 C69.22536341 169.24595813 69.23503143 175.93136288 69.2388947 182.61679286 C69.24337043 190.31867912 69.26089748 198.02038746 69.2898953 205.72221965 C69.31156138 211.68502797 69.32160165 217.64778643 69.32293582 223.61063367 C69.3239806 227.16729761 69.32981791 230.72379421 69.34775543 234.28041649 C69.36740432 238.25365215 69.36292753 242.22666824 69.35644531 246.19995117 C69.3656601 247.36755478 69.37487488 248.53515839 69.3843689 249.73814392 C69.32785268 260.82002373 67.10584003 267.75147067 59.41796875 275.828125 C53.47183291 281.16908062 47.14031578 283.11994627 39.24594116 283.14717102 C38.55552408 283.15084771 37.865107 283.1545244 37.15376818 283.1583125 C34.83476374 283.16934636 32.51580411 283.1731927 30.19677734 283.17700195 C28.5360805 283.18326694 26.87538506 283.18991377 25.21469116 283.19691467 C19.75511654 283.21795708 14.29554164 283.2283187 8.8359375 283.23828125 C6.95558279 283.24232904 5.07522822 283.24644597 3.19487381 283.25063133 C-5.64123821 283.26968509 -14.47734187 283.28391452 -23.31347048 283.2922433 C-33.50685985 283.30201033 -43.70003176 283.32831511 -53.89334452 283.36874419 C-61.77543559 283.39893123 -69.65746443 283.41371472 -77.53961217 283.41702431 C-82.24544571 283.41937228 -86.95104697 283.42829933 -91.65681839 283.45348549 C-96.08754706 283.47681586 -100.51789137 283.48097956 -104.94866562 283.47072411 C-106.57035859 283.4702298 -108.19207079 283.476519 -109.81370544 283.49028015 C-118.27554358 283.55803921 -125.57116241 283.47910407 -133 279 C-134.051875 278.443125 -135.10375 277.88625 -136.1875 277.3125 C-141.96313101 272.56364784 -145.62198057 266.35708253 -147 259 C-147.29748646 254.84065744 -147.29376956 250.6908933 -147.29052734 246.5222168 C-147.29724457 245.27904694 -147.30396179 244.03587708 -147.31088257 242.7550354 C-147.32658112 239.36018352 -147.33323498 235.96557636 -147.33451414 232.57070518 C-147.3359403 230.44504813 -147.34021866 228.31941638 -147.34550858 226.19376564 C-147.36398609 218.7646587 -147.37218208 211.3356233 -147.37060547 203.90649414 C-147.3694048 197.00305986 -147.39049806 190.09993858 -147.4220928 183.19658345 C-147.44832316 177.25152209 -147.45896994 171.30656254 -147.45769465 165.36144382 C-147.45718698 161.81872296 -147.46276111 158.27628052 -147.48405075 154.73361778 C-147.50717758 150.777612 -147.49787094 146.82202897 -147.48583984 142.8659668 C-147.49707886 141.7066716 -147.50831787 140.5473764 -147.51989746 139.35295105 C-147.44251033 129.30655952 -145.03411774 121.19204463 -138.06640625 113.7578125 C-131.09554765 107.82797059 -123.69136924 105.85470954 -114.75 105.9375 C-112.85507813 105.95103516 -112.85507813 105.95103516 -110.921875 105.96484375 C-109.47554687 105.98224609 -109.47554687 105.98224609 -108 106 C-108.00666183 105.3295163 -108.01332367 104.65903259 -108.02018738 103.9682312 C-108.08707412 96.92662399 -108.13201979 89.88510848 -108.16479492 82.84326172 C-108.17978844 80.22278166 -108.20019002 77.60232629 -108.22631836 74.98193359 C-108.2631191 71.19362252 -108.27982142 67.40564607 -108.29296875 63.6171875 C-108.30845261 62.46451385 -108.32393646 61.31184021 -108.33988953 60.12423706 C-108.34407095 39.45445184 -101.38773211 22.77885882 -87.3125 7.8125 C-63.63172841 -15.03290695 -27.4630076 -17.30808153 0 0 Z M-74.70703125 24.44921875 C-84.76670212 35.63995994 -87.48319875 47.82506386 -87.29296875 62.4453125 C-87.28994751 63.55575928 -87.28692627 64.66620605 -87.28381348 65.81030273 C-87.26824619 69.91529785 -87.22636335 74.02015934 -87.1875 78.125 C-87.125625 87.32375 -87.06375 96.5225 -87 106 C-55.32 106 -23.64 106 9 106 C9.0825 96.8425 9.165 87.685 9.25 78.25 C9.28641602 75.38344727 9.32283203 72.51689453 9.36035156 69.56347656 C9.37204927 67.25586696 9.38223852 64.94824901 9.390625 62.640625 C9.4213208 60.88661377 9.4213208 60.88661377 9.45263672 59.09716797 C9.45837914 45.36703096 4.95679756 33.76515785 -4.21875 23.5234375 C-13.76933211 14.25193084 -25.64141044 9.39089017 -38.8984375 8.890625 C-52.97204729 9.38692358 -64.58132572 14.87084865 -74.70703125 24.44921875 Z M-60 155 C-65.30051926 161.4666335 -68.60299895 168.20136355 -68.3046875 176.76953125 C-67.04405496 185.99800796 -62.73774381 192.72893975 -56 199 C-55.34 199.33 -54.68 199.66 -54 200 C-54.51900508 210.84541649 -55.70715873 221.56712425 -57.0715332 232.33740234 C-57.27202271 233.97443115 -57.27202271 233.97443115 -57.4765625 235.64453125 C-57.60111816 236.62784424 -57.72567383 237.61115723 -57.85400391 238.62426758 C-58.20026978 241.0171549 -58.20026978 241.0171549 -57 243 C-45.12 243 -33.24 243 -21 243 C-19.93185438 238.72741753 -20.19030196 236.18698873 -20.77734375 231.85546875 C-20.86754288 231.16745682 -20.957742 230.47944489 -21.05067444 229.77058411 C-21.33924423 227.57521875 -21.6375842 225.38134189 -21.9375 223.1875 C-22.23283203 221.00426463 -22.52588772 218.8208022 -22.81361389 216.6365509 C-23.07617415 214.64657246 -23.3463504 212.65760326 -23.61694336 210.66870117 C-23.99336993 207.06349909 -24.17876535 203.62084155 -24 200 C-22.42578125 198.13671875 -22.42578125 198.13671875 -20.3125 196.6875 C-14.60651441 192.21578789 -11.44013053 186.08544222 -10 179 C-9.23962791 170.33175814 -11.66631138 162.46449165 -17.125 155.625 C-23.21772303 149.31190188 -30.55095566 146.27689487 -39.26953125 145.87109375 C-47.40518868 146.25518058 -54.21668442 149.27873716 -60 155 Z " fill="#000000" transform="translate(148,12)"/>
</svg>
