<?xml version="1.0" encoding="UTF-8"?>
<svg version="1.1" xmlns="http://www.w3.org/2000/svg" width="208" height="282">
<path d="M0 0 C14.98588884 12.24808222 24.12355062 28.34538478 26.26092529 47.73062134 C26.96250194 56.71640437 26.6326069 65.79991897 26.5625 74.8046875 C26.55245025 77.05793873 26.54332793 79.3111943 26.53515625 81.56445312 C26.51330066 87.04046047 26.4799812 92.51630333 26.4375 97.9921875 C27.96600586 97.95629517 27.96600586 97.95629517 29.52539062 97.91967773 C30.88150257 97.90032147 32.23762302 97.88155384 33.59375 97.86328125 C34.2630957 97.84599976 34.93244141 97.82871826 35.62207031 97.81091309 C43.75773419 97.72886024 49.36261882 100.8825359 55.3125 106.1796875 C62.1080589 113.79777349 63.02768476 122.4095102 62.95507812 132.25976562 C62.9620874 133.44485214 62.96909668 134.62993866 62.97631836 135.85093689 C62.99081259 139.07221406 62.98754898 142.2928236 62.97480202 145.51408958 C62.96459387 148.90332697 62.97408918 152.29252335 62.98034668 155.6817627 C62.98760057 161.37076692 62.97809517 167.05956267 62.95898438 172.74853516 C62.93721974 179.30272841 62.94427274 185.85642375 62.96629 192.41060495 C62.98450886 198.06276377 62.98697085 203.71477369 62.97653532 209.36695242 C62.97033578 212.73186484 62.96936595 216.0965441 62.98268127 219.46144104 C62.99288853 223.21616835 62.97728531 226.96995198 62.95507812 230.72460938 C62.96317505 231.82308701 62.97127197 232.92156464 62.97961426 234.05332947 C62.891559 242.12740727 61.28721181 248.87317174 56.6484375 255.578125 C56.04257813 256.16851562 55.43671875 256.75890625 54.8125 257.3671875 C54.22210938 257.97304688 53.63171875 258.57890625 53.0234375 259.203125 C44.21834416 265.29486632 35.21982837 265.57097651 24.86523438 265.50976562 C23.31349534 265.51519546 21.76176147 265.52232293 20.21003723 265.53100586 C16.0219448 265.54913997 11.83424938 265.54221305 7.64615059 265.52948952 C3.24793613 265.51931014 -1.15024601 265.52876884 -5.54846191 265.53503418 C-12.93227189 265.54229628 -20.31592145 265.53276075 -27.69970703 265.51367188 C-36.21699776 265.49190586 -44.73390539 265.49895826 -53.25118685 265.5209775 C-60.58485059 265.5391726 -67.9183995 265.54166979 -75.25207853 265.53122282 C-79.62301627 265.52501042 -83.99377437 265.52408981 -88.36470032 265.53736877 C-92.47549035 265.54898676 -96.58579001 265.54079406 -100.69652748 265.51779175 C-102.19845582 265.51253621 -103.70042597 265.5139639 -105.20233727 265.52284241 C-116.13178853 265.58145828 -125.70997029 264.49702007 -134.02734375 256.76953125 C-139.07360658 250.92716589 -141.67217063 244.66385317 -141.70967102 236.99156189 C-141.71682632 235.98384735 -141.72398163 234.97613281 -141.73135376 233.93788147 C-141.73404266 232.83810471 -141.73673157 231.73832794 -141.73950195 230.60522461 C-141.74935875 228.86057922 -141.74935875 228.86057922 -141.75941467 227.08068848 C-141.7791431 223.22696874 -141.79081061 219.37328801 -141.80078125 215.51953125 C-141.80485678 214.20198915 -141.8089323 212.88444706 -141.81313133 211.52697945 C-141.83217666 205.26977863 -141.84640611 199.01258952 -141.8547433 192.75536531 C-141.86449776 185.55490174 -141.8907727 178.35474704 -141.93124419 171.15439218 C-141.96151538 165.57541468 -141.97622274 159.99652514 -141.97952431 154.41746718 C-141.98186333 151.09204116 -141.99267926 147.76701855 -142.01598549 144.44166374 C-142.04042726 140.72249931 -142.03940182 137.00413288 -142.0324707 133.28491211 C-142.04528076 132.19930496 -142.05809082 131.11369781 -142.07128906 129.99519348 C-142.01543507 121.73066547 -140.51864128 114.08259372 -135.59765625 107.2734375 C-134.94667969 106.685625 -134.29570312 106.0978125 -133.625 105.4921875 C-132.93019531 104.86183594 -132.23539063 104.23148437 -131.51953125 103.58203125 C-126.2093846 99.26819954 -122.06559741 97.86519238 -115.29803467 97.87193298 C-113.69951157 97.86987099 -113.69951157 97.86987099 -112.06869507 97.86776733 C-110.90488312 97.87136261 -109.74107117 97.87495789 -108.54199219 97.87866211 C-107.31245819 97.87851608 -106.08292419 97.87837006 -104.81613159 97.8782196 C-101.44868318 97.87879672 -98.08129615 97.8838106 -94.7138586 97.89079356 C-91.1931317 97.89704658 -87.67240397 97.89763244 -84.15167236 97.89881897 C-77.48651265 97.90192653 -70.82136935 97.91013219 -64.15621686 97.92016846 C-56.56739531 97.93134743 -48.97857297 97.93684455 -41.38974524 97.94186389 C-25.78065399 97.95231527 -10.17157911 97.9699036 5.4375 97.9921875 C5.39552744 90.82421277 5.32290928 83.65699554 5.22998047 76.48950195 C5.20192928 74.05630342 5.18063678 71.62301645 5.16650391 69.18969727 C5.05013532 50.27980166 4.74412713 33.27364771 -9.47265625 19.0859375 C-21.09658107 9.72951342 -34.1361654 7.65259929 -48.5625 8.9921875 C-61.15947824 11.85864275 -70.59852489 19.27419456 -77.5625 29.9921875 C-82.74506472 38.91591613 -83.52630936 49.018891 -84.31640625 59.12890625 C-84.5625 60.9921875 -84.5625 60.9921875 -85.5625 61.9921875 C-86.89293625 62.0905596 -88.22843344 62.12297342 -89.5625 62.125 C-90.366875 62.12628906 -91.17125 62.12757812 -92 62.12890625 C-92.845625 62.12503906 -93.69125 62.12117188 -94.5625 62.1171875 C-95.408125 62.12105469 -96.25375 62.12492187 -97.125 62.12890625 C-97.929375 62.12761719 -98.73375 62.12632813 -99.5625 62.125 C-100.305 62.12387207 -101.0475 62.12274414 -101.8125 62.12158203 C-103.5625 61.9921875 -103.5625 61.9921875 -104.5625 60.9921875 C-105.79940735 44.10130515 -103.18445504 26.18969966 -91.9765625 12.796875 C-89.29151446 9.73571491 -86.4541524 6.85817435 -83.5625 3.9921875 C-83.00046875 3.39664062 -82.4384375 2.80109375 -81.859375 2.1875 C-60.13145808 -18.96862963 -23.16564594 -17.29998559 0 0 Z M-59.5625 144.9921875 C-64.92878101 152.80132777 -66.34380099 159.5821065 -65.5625 168.9921875 C-64.58069582 173.62922211 -63.36968724 177.78921045 -59.29296875 180.50292969 C-58.47441406 181.00985352 -57.65585938 181.51677734 -56.8125 182.0390625 C-54.34287333 184.16534657 -52.76250145 185.71383567 -52.24728394 189.00695801 C-52.13476969 195.05829904 -53.11031835 201.02295134 -54 206.9921875 C-54.23820957 208.83406084 -54.47198075 210.67651398 -54.70117188 212.51953125 C-55.26246816 217.02205958 -55.9134871 221.49803916 -56.5625 225.9921875 C-45.3425 225.9921875 -34.1225 225.9921875 -22.5625 225.9921875 C-23.3057476 214.22844086 -23.3057476 214.22844086 -24.625 202.6171875 C-24.94726235 200.07663977 -25.25433997 197.53450773 -25.5625 194.9921875 C-25.748125 193.60773438 -25.748125 193.60773438 -25.9375 192.1953125 C-26.125 189.8671875 -26.125 189.8671875 -25.5625 185.9921875 C-24.0014939 184.24701776 -22.34237984 182.96849984 -20.44921875 181.59375 C-16.21501008 177.9994942 -13.63548759 172.38997199 -12.5625 166.9921875 C-11.89210519 158.44465373 -14.50135171 151.40016137 -19.828125 144.78125 C-24.93360359 139.51478785 -31.58182022 136.22666755 -38.96875 135.87890625 C-46.82800551 136.22215687 -54.08972734 139.33698909 -59.5625 144.9921875 Z " fill="#000000" transform="translate(143.5625,14.0078125)"/>
</svg>
